# xmcd
#
# Track frame offsets:
#	150
#	14762
#	24455
#	44485
#	56500
#	66112
#	78182
#	95155
#	107025
#	122130
#	146127
#	173695
#	189675
#	205107
#	222220
#	242577
#	253352
#
# Disc length: 3745 seconds
#
# Revision: 1
# Processed by: cddbd v1.5.2PL0 Copyright (c) Steve Scherf et al.
# Submitted via: audiograbber 1.83.01
#
DISCID=fc0e9f11
DTITLE=Glenn Campbell - In Concert
DYEAR=1998
DGENRE=Country
TTITLE0=Rhinestone Cowboy
TTITLE1=Gentle on My Mind
TTITLE2=Medley Wichita Linesman Galveston Country Boy
TTITLE3=By the Time I get to Phoenix
TTITLE4=Dreams of an Everyday Housewife
TTITLE5=Heartache Number 3
TTITLE6=Please come to Boston
TTITLE7=Its only make believe
TTITLE8=Crying
TTITLE9=Bluegrass Medley
TTITLE10=Milk Cow Blues
TTITLE11=Rollin in my sweet babys arms
TTITLE12=I'm so lonesome I could cry
TTITLE13=Southern Nights
TTITLE14=Amazing Grace
TTITLE15=Try a little Kindness
TTITLE16=Mull of Kintyre
EXTD=
EXTT0=
EXTT1=
EXTT2=
EXTT3=
EXTT4=
EXTT5=
EXTT6=
EXTT7=
EXTT8=
EXTT9=
EXTT10=
EXTT11=
EXTT12=
EXTT13=
EXTT14=
EXTT15=
EXTT16=
PLAYORDER=
